# xmcd
#
# Track frame offsets:
#  150
#  19451
#  47563
#  70596
#  88274
#  118395
#  142393
#  160431
#  194465
#  217760
#
# Disc length: 3565 seconds
#
# Revision: 0
# Processed by: cddbd v1.5.1PL2 Copyright (c) Steve Scherf et al.
# Submitted via: Collectorz.com_Music_Collector 6.9
#
DISCID=9a0deb0a
DTITLE=The Sean Webster Band - Long Time Coming
DYEAR=2003
DGENRE=Blues Rock
TTITLE0=Story Of My Life
TTITLE1=What Was His Name
TTITLE2=Just Walk Away
TTITLE3=I'll Be Gone
TTITLE4=You and Me
TTITLE5=Girl's Too Good
TTITLE6=Keep The Line
TTITLE7=In Another Life
TTITLE8=Long Time Coming
TTITLE9=Part of the Deal...(+bonus track)
EXTD=
EXTT0=
EXTT1=
EXTT2=
EXTT3=
EXTT4=
EXTT5=
EXTT6=
EXTT7=
EXTT8=
EXTT9=
PLAYORDER=
